<?xml version="1.0" encoding="UTF-8" standalone="no"?>
<!DOCTYPE svg PUBLIC "-//W3C//DTD SVG 1.1//EN" "http://www.w3.org/Graphics/SVG/1.1/DTD/svg11.dtd">
<svg xmlns="http://www.w3.org/2000/svg" xmlns:xlink="http://www.w3.org/1999/xlink" version="1.1" width="269.154pt" height="233.773pt" viewBox="0 0 269.154 233.773">
<g enable-background="new">
<path transform="matrix(1,0,0,-1,154.309,203.553)" d="M 9.96277 0 C 9.96277 5.50235 5.50235 9.96277 0 9.96277 C -5.50235 9.96277 -9.96277 5.50235 -9.96277 0 C -9.96277 -5.50235 -5.50235 -9.96277 0 -9.96277 C 5.50235 -9.96277 9.96277 -5.50235 9.96277 0 Z M 0 0 " fill="#e5e5e5"/>
<path transform="matrix(1,0,0,-1,154.309,203.553)" stroke-width=".3985" stroke-linecap="butt" stroke-miterlimit="10" stroke-linejoin="miter" fill="none" stroke="#000000" d="M 9.96277 0 C 9.96277 5.50235 5.50235 9.96277 0 9.96277 C -5.50235 9.96277 -9.96277 5.50235 -9.96277 0 C -9.96277 -5.50235 -5.50235 -9.96277 0 -9.96277 C 5.50235 -9.96277 9.96277 -5.50235 9.96277 0 Z M 0 0 "/>
<text xml:space="preserve" transform="matrix(1 0 -0 1 0 233.773)" font-size="11.9552" font-family="CMMI12" font-style="italic"><tspan y="-28.808" x="149.764">y</tspan></text>
<text xml:space="preserve" transform="matrix(1 0 -0 1 0 233.773)" font-size="7.9701" font-family="CMMI8" font-style="italic"><tspan y="-27.015002" x="155.47202">i</tspan></text>
<path transform="matrix(1,0,0,-1,154.309,203.553)" d="M 9.96277 190.40496 C 9.96277 195.9073 5.50235 200.36772 0 200.36772 C -5.50235 200.36772 -9.96277 195.9073 -9.96277 190.40496 C -9.96277 184.9026 -5.50235 180.44219 0 180.44219 C 5.50235 180.44219 9.96277 184.9026 9.96277 190.40496 Z M 0 190.40496 " fill="#ffffff"/>
<path transform="matrix(1,0,0,-1,154.309,203.553)" stroke-width=".3985" stroke-linecap="butt" stroke-miterlimit="10" stroke-linejoin="miter" fill="none" stroke="#000000" d="M 9.96277 190.40496 C 9.96277 195.9073 5.50235 200.36772 0 200.36772 C -5.50235 200.36772 -9.96277 195.9073 -9.96277 190.40496 C -9.96277 184.9026 -5.50235 180.44219 0 180.44219 C 5.50235 180.44219 9.96277 184.9026 9.96277 190.40496 Z M 0 190.40496 "/>
<text xml:space="preserve" transform="matrix(1 0 -0 1 0 233.773)" font-size="11.9552" font-family="CMMI12" font-style="italic"><tspan y="-218.048" x="151.099">&#x03c4;</tspan></text>
<path transform="matrix(1,0,0,-1,154.309,203.553)" d="M 9.96277 133.71132 C 9.96277 139.21367 5.50235 143.67409 0 143.67409 C -5.50235 143.67409 -9.96277 139.21367 -9.96277 133.71132 C -9.96277 128.20897 -5.50235 123.74855 0 123.74855 C 5.50235 123.74855 9.96277 128.20897 9.96277 133.71132 Z M 0 133.71132 " fill="#ffffff"/>
<path transform="matrix(1,0,0,-1,154.309,203.553)" stroke-width=".3985" stroke-linecap="butt" stroke-miterlimit="10" stroke-linejoin="miter" fill="none" stroke="#000000" d="M 9.96277 133.71132 C 9.96277 139.21367 5.50235 143.67409 0 143.67409 C -5.50235 143.67409 -9.96277 139.21367 -9.96277 133.71132 C -9.96277 128.20897 -5.50235 123.74855 0 123.74855 C 5.50235 123.74855 9.96277 128.20897 9.96277 133.71132 Z M 0 133.71132 "/>
<text xml:space="preserve" transform="matrix(1 0 -0 1 0 233.773)" font-size="11.9552" font-family="CMMI12" font-style="italic"><tspan y="-159.778" x="151.418">&#x03b8;</tspan></text>
<path transform="matrix(1,0,0,-1,154.309,203.553)" d="M -3.73604 161.08086 L 3.73604 161.08086 L 3.73604 167.88872 L -3.73604 167.88872 Z "/>
<text xml:space="preserve" transform="matrix(1 0 -0 1 0 233.773)" font-size="9.9626" font-family="CMR10"><tspan y="-191.298" x="150.573">N</tspan></text>
<text xml:space="preserve" transform="matrix(1 0 -0 1 0 233.773)" font-size="9.9626" font-family="CMR10"><tspan y="-191.243" x="161.278 168.74996 173.73125 177.63658 185.93543 190.91672">Normal</tspan></text>
<path transform="matrix(1,0,0,-1,154.309,203.553)" d="M 9.96277 37.33229 C 9.96277 42.83466 5.50235 47.29506 0 47.29506 C -5.50235 47.29506 -9.96277 42.83466 -9.96277 37.33229 C -9.96277 31.82994 -5.50235 27.36952 0 27.36952 C 5.50235 27.36952 9.96277 31.82994 9.96277 37.33229 Z M 0 37.33229 " fill="#ffffff"/>
<path transform="matrix(1,0,0,-1,154.309,203.553)" stroke-width=".3985" stroke-linecap="butt" stroke-miterlimit="10" stroke-linejoin="miter" fill="none" stroke="#000000" d="M 9.96277 37.33229 C 9.96277 42.83466 5.50235 47.29506 0 47.29506 C -5.50235 47.29506 -9.96277 42.83466 -9.96277 37.33229 C -9.96277 31.82994 -5.50235 27.36952 0 27.36952 C 5.50235 27.36952 9.96277 31.82994 9.96277 37.33229 Z M 0 37.33229 "/>
<text xml:space="preserve" transform="matrix(1 0 -0 1 .000015258789 233.773)" font-size="11.9552" font-family="CMMI12" font-style="italic"><tspan y="-66.14" x="149.68">p</tspan></text>
<text xml:space="preserve" transform="matrix(1 0 -0 1 .000015258789 233.773)" font-size="7.9701" font-family="CMMI8" font-style="italic"><tspan y="-64.347" x="155.555">i</tspan></text>
<path transform="matrix(1,0,0,-1,154.309,203.553)" d="M -119.05656 76.04036 C -119.05656 83.86821 -125.40211 90.21376 -133.22997 90.21376 C -141.05782 90.21376 -147.40337 83.86821 -147.40337 76.04036 C -147.40337 68.21251 -141.05782 61.86697 -133.22997 61.86697 C -125.40211 61.86697 -119.05656 68.21251 -119.05656 76.04036 Z M -133.22997 76.04036 " fill="#e5e5e5"/>
<path transform="matrix(1,0,0,-1,154.309,203.553)" stroke-width=".3985" stroke-linecap="butt" stroke-miterlimit="10" stroke-linejoin="miter" fill="none" stroke="#000000" d="M -119.05656 76.04036 C -119.05656 83.86821 -125.40211 90.21376 -133.22997 90.21376 C -141.05782 90.21376 -147.40337 83.86821 -147.40337 76.04036 C -147.40337 68.21251 -141.05782 61.86697 -133.22997 61.86697 C -125.40211 61.86697 -119.05656 68.21251 -119.05656 76.04036 Z M -133.22997 76.04036 "/>
<text xml:space="preserve" transform="matrix(1 0 -0 1 .000005722046 233.77298)" font-size="9.9626" font-family="CMR10"><tspan y="-103.602" x="12.296 19.76795">NP</tspan></text>
<text xml:space="preserve" transform="matrix(1 0 -0 1 .000005722046 233.77298)" font-size="6.9738" font-family="CMMI7" font-style="italic"><tspan y="-102.107997" x="26.548">i</tspan></text>
<path transform="matrix(1,0,0,-1,154.309,203.553)" d="M -62.14137 76.2619 C -62.14137 84.2121 -68.58612 90.65685 -76.53632 90.65685 C -84.48651 90.65685 -90.93124 84.2121 -90.93124 76.2619 C -90.93124 68.3117 -84.48651 61.86697 -76.53632 61.86697 C -68.58612 61.86697 -62.14137 68.3117 -62.14137 76.2619 Z M -76.53632 76.2619 " fill="#e5e5e5"/>
<path transform="matrix(1,0,0,-1,154.309,203.553)" stroke-width=".3985" stroke-linecap="butt" stroke-miterlimit="10" stroke-linejoin="miter" fill="none" stroke="#000000" d="M -62.14137 76.2619 C -62.14137 84.2121 -68.58612 90.65685 -76.53632 90.65685 C -84.48651 90.65685 -90.93124 84.2121 -90.93124 76.2619 C -90.93124 68.3117 -84.48651 61.86697 -76.53632 61.86697 C -68.58612 61.86697 -62.14137 68.3117 -62.14137 76.2619 Z M -76.53632 76.2619 "/>
<text xml:space="preserve" transform="matrix(1 0 -0 1 0 233.77301)" font-size="9.9626" font-family="CMR10"><tspan y="-103.824" x="65.218 72.00253 79.82317">PGC</tspan></text>
<text xml:space="preserve" transform="matrix(1 0 -0 1 0 233.77301)" font-size="6.9738" font-family="CMMI7" font-style="italic"><tspan y="-102.328998" x="87.011">i</tspan></text>
<path transform="matrix(1,0,0,-1,154.309,203.553)" d="M -5.66928 76.04036 C -5.66928 83.86821 -12.01483 90.21376 -19.84268 90.21376 C -27.67053 90.21376 -34.01608 83.86821 -34.01608 76.04036 C -34.01608 68.21251 -27.67053 61.86697 -19.84268 61.86697 C -12.01483 61.86697 -5.66928 68.21251 -5.66928 76.04036 Z M -19.84268 76.04036 " fill="#e5e5e5"/>
<path transform="matrix(1,0,0,-1,154.309,203.553)" stroke-width=".3985" stroke-linecap="butt" stroke-miterlimit="10" stroke-linejoin="miter" fill="none" stroke="#000000" d="M -5.66928 76.04036 C -5.66928 83.86821 -12.01483 90.21376 -19.84268 90.21376 C -27.67053 90.21376 -34.01608 83.86821 -34.01608 76.04036 C -34.01608 68.21251 -27.67053 61.86697 -19.84268 61.86697 C -12.01483 61.86697 -5.66928 68.21251 -5.66928 76.04036 Z M -19.84268 76.04036 "/>
<text xml:space="preserve" transform="matrix(1 0 -0 1 0 233.77298)" font-size="9.9626" font-family="CMR10"><tspan y="-103.602" x="122.914 129.96753 139.10324">BMI</tspan></text>
<text xml:space="preserve" transform="matrix(1 0 -0 1 0 233.77298)" font-size="6.9738" font-family="CMMI7" font-style="italic"><tspan y="-102.107997" x="142.701">i</tspan></text>
<path transform="matrix(1,0,0,-1,154.309,203.553)" d="M 51.02434 76.04036 C 51.02434 83.86821 44.67879 90.21376 36.85094 90.21376 C 29.02309 90.21376 22.67754 83.86821 22.67754 76.04036 C 22.67754 68.21251 29.02309 61.86697 36.85094 61.86697 C 44.67879 61.86697 51.02434 68.21251 51.02434 76.04036 Z M 36.85094 76.04036 " fill="#e5e5e5"/>
<path transform="matrix(1,0,0,-1,154.309,203.553)" stroke-width=".3985" stroke-linecap="butt" stroke-miterlimit="10" stroke-linejoin="miter" fill="none" stroke="#000000" d="M 51.02434 76.04036 C 51.02434 83.86821 44.67879 90.21376 36.85094 90.21376 C 29.02309 90.21376 22.67754 83.86821 22.67754 76.04036 C 22.67754 68.21251 29.02309 61.86697 36.85094 61.86697 C 44.67879 61.86697 51.02434 68.21251 51.02434 76.04036 Z M 36.85094 76.04036 "/>
<text xml:space="preserve" transform="matrix(1 0 -0 1 .000015258789 233.77298)" font-size="9.9626" font-family="CMR10"><tspan y="-103.602" x="182.305 189.91641">DP</tspan></text>
<text xml:space="preserve" transform="matrix(1 0 -0 1 .000015258789 233.77298)" font-size="6.9738" font-family="CMMI7" font-style="italic"><tspan y="-102.107997" x="196.696">i</tspan></text>
<path transform="matrix(1,0,0,-1,154.309,203.553)" d="M 107.93953 76.2619 C 107.93953 84.2121 101.49478 90.65685 93.54459 90.65685 C 85.59439 90.65685 79.14966 84.2121 79.14966 76.2619 C 79.14966 68.3117 85.59439 61.86697 93.54459 61.86697 C 101.49478 61.86697 107.93953 68.3117 107.93953 76.2619 Z M 93.54459 76.2619 " fill="#e5e5e5"/>
<path transform="matrix(1,0,0,-1,154.309,203.553)" stroke-width=".3985" stroke-linecap="butt" stroke-miterlimit="10" stroke-linejoin="miter" fill="none" stroke="#000000" d="M 107.93953 76.2619 C 107.93953 84.2121 101.49478 90.65685 93.54459 90.65685 C 85.59439 90.65685 79.14966 84.2121 79.14966 76.2619 C 79.14966 68.3117 85.59439 61.86697 93.54459 61.86697 C 101.49478 61.86697 107.93953 68.3117 107.93953 76.2619 Z M 93.54459 76.2619 "/>
<text xml:space="preserve" transform="matrix(1 0 -0 1 0 233.77301)" font-size="9.9626" font-family="CMR10"><tspan y="-103.824" x="235.297 242.49 250.31066">AGE</tspan></text>
<text xml:space="preserve" transform="matrix(1 0 -0 1 0 233.77301)" font-size="6.9738" font-family="CMMI7" font-style="italic"><tspan y="-102.329998" x="257.09">i</tspan></text>
<path transform="matrix(1,0,0,-1,154.309,203.553)" stroke-width=".3985" stroke-linecap="butt" stroke-miterlimit="10" stroke-linejoin="miter" fill="none" stroke="#000000" d="M 0 27.17027 L 0 11.15828 "/>
<path transform="matrix(0,1,1,0,154.309,192.39472)" d="M .797 0 C -.19925 .19925 -1.19551 .59775 -2.39102 1.29512 C -1.19551 .3985 -1.19551 -.3985 -2.39102 -1.29512 C -1.19551 -.59775 -.19925 -.19925 .797 0 Z "/>
<path transform="matrix(0,1,1,0,154.309,192.39472)" stroke-width=".3985" stroke-linecap="butt" stroke-linejoin="round" fill="none" stroke="#000000" d="M .797 0 C -.19925 .19925 -1.19551 .59775 -2.39102 1.29512 C -1.19551 .3985 -1.19551 -.3985 -2.39102 -1.29512 C -1.19551 -.59775 -.19925 -.19925 .797 0 Z "/>
<path transform="matrix(1,0,0,-1,154.309,203.553)" stroke-width=".3985" stroke-linecap="butt" stroke-miterlimit="10" stroke-linejoin="miter" fill="none" stroke="#000000" d="M -119.426 72.03029 L -10.71678 40.44586 "/>
<path transform="matrix(.96043,.27904,.27904,-.96043,143.59223,163.10712)" d="M .797 0 C -.19925 .19925 -1.19551 .59775 -2.39102 1.29512 C -1.19551 .3985 -1.19551 -.3985 -2.39102 -1.29512 C -1.19551 -.59775 -.19925 -.19925 .797 0 Z "/>
<path transform="matrix(.96043,.27904,.27904,-.96043,143.59223,163.10712)" stroke-width=".3985" stroke-linecap="butt" stroke-linejoin="round" fill="none" stroke="#000000" d="M .797 0 C -.19925 .19925 -1.19551 .59775 -2.39102 1.29512 C -1.19551 .3985 -1.19551 -.3985 -2.39102 -1.29512 C -1.19551 -.59775 -.19925 -.19925 .797 0 Z "/>
<path transform="matrix(1,0,0,-1,154.309,203.553)" stroke-width=".3985" stroke-linecap="butt" stroke-miterlimit="10" stroke-linejoin="miter" fill="none" stroke="#000000" d="M -63.48293 69.62242 L -9.98022 42.4088 "/>
<path transform="matrix(.89442,.45494,.45494,-.89442,144.32878,161.14418)" d="M .797 0 C -.19925 .19925 -1.19551 .59775 -2.39102 1.29512 C -1.19551 .3985 -1.19551 -.3985 -2.39102 -1.29512 C -1.19551 -.59775 -.19925 -.19925 .797 0 Z "/>
<path transform="matrix(.89442,.45494,.45494,-.89442,144.32878,161.14418)" stroke-width=".3985" stroke-linecap="butt" stroke-linejoin="round" fill="none" stroke="#000000" d="M .797 0 C -.19925 .19925 -1.19551 .59775 -2.39102 1.29512 C -1.19551 .3985 -1.19551 -.3985 -2.39102 -1.29512 C -1.19551 -.59775 -.19925 -.19925 .797 0 Z "/>
<path transform="matrix(1,0,0,-1,154.309,203.553)" stroke-width=".3985" stroke-linecap="butt" stroke-miterlimit="10" stroke-linejoin="miter" fill="none" stroke="#000000" d="M -13.27942 63.23688 L -5.09558 47.27235 "/>
<path transform="matrix(.45667,.89082,.89082,-.45667,149.21341,156.28064)" d="M .797 0 C -.19925 .19925 -1.19551 .59775 -2.39102 1.29512 C -1.19551 .3985 -1.19551 -.3985 -2.39102 -1.29512 C -1.19551 -.59775 -.19925 -.19925 .797 0 Z "/>
<path transform="matrix(.45667,.89082,.89082,-.45667,149.21341,156.28064)" stroke-width=".3985" stroke-linecap="butt" stroke-linejoin="round" fill="none" stroke="#000000" d="M .797 0 C -.19925 .19925 -1.19551 .59775 -2.39102 1.29512 C -1.19551 .3985 -1.19551 -.3985 -2.39102 -1.29512 C -1.19551 -.59775 -.19925 -.19925 .797 0 Z "/>
<path transform="matrix(1,0,0,-1,154.309,203.553)" stroke-width=".3985" stroke-linecap="butt" stroke-miterlimit="10" stroke-linejoin="miter" fill="none" stroke="#000000" d="M 26.93005 65.62033 L 7.70186 45.42194 "/>
<path transform="matrix(-.69016,.72499,.72499,.69016,162.01087,158.13105)" d="M .797 0 C -.19925 .19925 -1.19551 .59775 -2.39102 1.29512 C -1.19551 .3985 -1.19551 -.3985 -2.39102 -1.29512 C -1.19551 -.59775 -.19925 -.19925 .797 0 Z "/>
<path transform="matrix(-.69016,.72499,.72499,.69016,162.01087,158.13105)" stroke-width=".3985" stroke-linecap="butt" stroke-linejoin="round" fill="none" stroke="#000000" d="M .797 0 C -.19925 .19925 -1.19551 .59775 -2.39102 1.29512 C -1.19551 .3985 -1.19551 -.3985 -2.39102 -1.29512 C -1.19551 -.59775 -.19925 -.19925 .797 0 Z "/>
<path transform="matrix(1,0,0,-1,154.309,203.553)" stroke-width=".3985" stroke-linecap="butt" stroke-miterlimit="10" stroke-linejoin="miter" fill="none" stroke="#000000" d="M 80.04137 70.64233 L 10.32416 41.62885 "/>
<path transform="matrix(-.92525,.38507,.38507,.92525,164.63317,161.92414)" d="M .797 0 C -.19925 .19925 -1.19551 .59775 -2.39102 1.29512 C -1.19551 .3985 -1.19551 -.3985 -2.39102 -1.29512 C -1.19551 -.59775 -.19925 -.19925 .797 0 Z "/>
<path transform="matrix(-.92525,.38507,.38507,.92525,164.63317,161.92414)" stroke-width=".3985" stroke-linecap="butt" stroke-linejoin="round" fill="none" stroke="#000000" d="M .797 0 C -.19925 .19925 -1.19551 .59775 -2.39102 1.29512 C -1.19551 .3985 -1.19551 -.3985 -2.39102 -1.29512 C -1.19551 -.59775 -.19925 -.19925 .797 0 Z "/>
<path transform="matrix(1,0,0,-1,154.309,203.553)" stroke-width=".3985" stroke-linecap="butt" stroke-miterlimit="10" stroke-linejoin="miter" fill="none" stroke="#000000" d="M 0 123.5493 L 0 48.49059 "/>
<path transform="matrix(0,1,1,0,154.309,155.06241)" d="M .797 0 C -.19925 .19925 -1.19551 .59775 -2.39102 1.29512 C -1.19551 .3985 -1.19551 -.3985 -2.39102 -1.29512 C -1.19551 -.59775 -.19925 -.19925 .797 0 Z "/>
<path transform="matrix(0,1,1,0,154.309,155.06241)" stroke-width=".3985" stroke-linecap="butt" stroke-linejoin="round" fill="none" stroke="#000000" d="M .797 0 C -.19925 .19925 -1.19551 .59775 -2.39102 1.29512 C -1.19551 .3985 -1.19551 -.3985 -2.39102 -1.29512 C -1.19551 -.59775 -.19925 -.19925 .797 0 Z "/>
<path transform="matrix(1,0,0,-1,154.309,203.553)" stroke-width=".3985" stroke-linecap="butt" stroke-miterlimit="10" stroke-linejoin="miter" fill="none" stroke="#000000" d=""/>
<path transform="matrix(1,0,0,-1,154.309,203.553)" stroke-width=".3985" stroke-linecap="butt" stroke-miterlimit="10" stroke-linejoin="miter" fill="none" stroke="#000000" d="M 0 180.24294 L 0 168.08798 "/>
<path transform="matrix(1,0,0,-1,154.309,203.553)" stroke-width=".3985" stroke-linecap="butt" stroke-miterlimit="10" stroke-linejoin="miter" fill="none" stroke="#000000" d="M 0 160.8816 L 0 144.8696 "/>
<path transform="matrix(0,1,1,0,154.309,58.683397)" d="M .797 0 C -.19925 .19925 -1.19551 .59775 -2.39102 1.29512 C -1.19551 .3985 -1.19551 -.3985 -2.39102 -1.29512 C -1.19551 -.59775 -.19925 -.19925 .797 0 Z "/>
<path transform="matrix(0,1,1,0,154.309,58.683397)" stroke-width=".3985" stroke-linecap="butt" stroke-linejoin="round" fill="none" stroke="#000000" d="M .797 0 C -.19925 .19925 -1.19551 .59775 -2.39102 1.29512 C -1.19551 .3985 -1.19551 -.3985 -2.39102 -1.29512 C -1.19551 -.59775 -.19925 -.19925 .797 0 Z "/>
<text xml:space="preserve" transform="matrix(1 0 -0 1 0 233.773)" font-size="7.9701" font-family="CMMI8" font-style="italic"><tspan y="-8.7" x="216.787">i</tspan></text>
<text xml:space="preserve" transform="matrix(1 0 -0 1 0 233.773)" font-size="7.9701" font-family="CMSY8" font-style="italic"><tspan y="-8.7" x="222.02301 230.01703">&#x2208;{</tspan></text>
<text xml:space="preserve" transform="matrix(1 0 -0 1 0 233.773)" font-size="7.9701" font-family="CMR8"><tspan y="-8.7" x="234.255">1</tspan></text>
<text xml:space="preserve" transform="matrix(1 0 -0 1 0 233.773)" font-size="7.9701" font-family="CMMI8" font-style="italic"><tspan y="-8.7" x="238.489 242.25089 244.60207 246.95325 249.30443 253.06632">,...,n</tspan></text>
<text xml:space="preserve" transform="matrix(1 0 -0 1 0 233.773)" font-size="7.9701" font-family="CMSY8" font-style="italic"><tspan y="-8.7" x="258.212">}</tspan></text>
<path transform="matrix(1,0,0,-1,154.309,203.553)" stroke-width=".3985" stroke-linecap="butt" stroke-miterlimit="10" stroke-linejoin="miter" fill="none" stroke="#000000" d="M 107.67348 114.29047 L -147.13733 114.29047 C -149.33827 114.29047 -151.12244 112.5063 -151.12244 110.30536 L -151.12244 -23.04683 C -151.12244 -25.24777 -149.33827 -27.03194 -147.13733 -27.03194 L 107.67348 -27.03194 C 109.87442 -27.03194 111.65858 -25.24777 111.65858 -23.04683 L 111.65858 110.30536 C 111.65858 112.5063 109.87442 114.29047 107.67348 114.29047 Z M -151.12244 -27.03194 "/>
</g>
</svg>
