<?xml version="1.0" encoding="UTF-8" standalone="no"?>
<!DOCTYPE svg PUBLIC "-//W3C//DTD SVG 1.1//EN" "http://www.w3.org/Graphics/SVG/1.1/DTD/svg11.dtd">
<svg xmlns="http://www.w3.org/2000/svg" xmlns:xlink="http://www.w3.org/1999/xlink" version="1.1" width="250.268pt" height="193.044pt" viewBox="0 0 250.268 193.044">
<g enable-background="new">
<path transform="matrix(1,0,0,-1,122.865,162.824)" d="M 9.96277 0 C 9.96277 5.50235 5.50235 9.96277 0 9.96277 C -5.50235 9.96277 -9.96277 5.50235 -9.96277 0 C -9.96277 -5.50235 -5.50235 -9.96277 0 -9.96277 C 5.50235 -9.96277 9.96277 -5.50235 9.96277 0 Z M 0 0 " fill="#e5e5e5"/>
<path transform="matrix(1,0,0,-1,122.865,162.824)" stroke-width=".3985" stroke-linecap="butt" stroke-miterlimit="10" stroke-linejoin="miter" fill="none" stroke="#000000" d="M 9.96277 0 C 9.96277 5.50235 5.50235 9.96277 0 9.96277 C -5.50235 9.96277 -9.96277 5.50235 -9.96277 0 C -9.96277 -5.50235 -5.50235 -9.96277 0 -9.96277 C 5.50235 -9.96277 9.96277 -5.50235 9.96277 0 Z M 0 0 "/>
<text xml:space="preserve" transform="matrix(1 0 -0 1 0 193.044)" font-size="11.9552" font-family="CMMI12" font-style="italic"><tspan y="-28.808" x="118.32">y</tspan></text>
<text xml:space="preserve" transform="matrix(1 0 -0 1 0 193.044)" font-size="7.9701" font-family="CMMI8" font-style="italic"><tspan y="-27.015002" x="124.028">i</tspan></text>
<path transform="matrix(1,0,0,-1,122.865,162.824)" d="M -75.07768 25.9933 C -75.07768 31.49567 -79.5381 35.95607 -85.04045 35.95607 C -90.5428 35.95607 -95.00322 31.49567 -95.00322 25.9933 C -95.00322 20.49095 -90.5428 16.03053 -85.04045 16.03053 C -79.5381 16.03053 -75.07768 20.49095 -75.07768 25.9933 Z M -85.04045 25.9933 " fill="#e5e5e5"/>
<path transform="matrix(1,0,0,-1,122.865,162.824)" stroke-width=".3985" stroke-linecap="butt" stroke-miterlimit="10" stroke-linejoin="miter" fill="none" stroke="#000000" d="M -75.07768 25.9933 C -75.07768 31.49567 -79.5381 35.95607 -85.04045 35.95607 C -90.5428 35.95607 -95.00322 31.49567 -95.00322 25.9933 C -95.00322 20.49095 -90.5428 16.03053 -85.04045 16.03053 C -79.5381 16.03053 -75.07768 20.49095 -75.07768 25.9933 Z M -85.04045 25.9933 "/>
<text xml:space="preserve" transform="matrix(1 0 -0 1 0 193.044)" font-size="11.9552" font-family="CMMI12" font-style="italic"><tspan y="-54.536" x="32.809">x</tspan></text>
<text xml:space="preserve" transform="matrix(1 0 -0 1 0 193.044)" font-size="7.9701" font-family="CMMI8" font-style="italic"><tspan y="-52.742" x="39.461">i</tspan></text>
<path transform="matrix(1,0,0,-1,122.865,162.824)" d="M 95.00322 25.9933 C 95.00322 31.49567 90.5428 35.95607 85.04045 35.95607 C 79.5381 35.95607 75.07768 31.49567 75.07768 25.9933 C 75.07768 20.49095 79.5381 16.03053 85.04045 16.03053 C 90.5428 16.03053 95.00322 20.49095 95.00322 25.9933 Z M 85.04045 25.9933 " fill="#ffffff"/>
<path transform="matrix(1,0,0,-1,122.865,162.824)" stroke-width=".3985" stroke-linecap="butt" stroke-miterlimit="10" stroke-linejoin="miter" fill="none" stroke="#000000" d="M 95.00322 25.9933 C 95.00322 31.49567 90.5428 35.95607 85.04045 35.95607 C 79.5381 35.95607 75.07768 31.49567 75.07768 25.9933 C 75.07768 20.49095 79.5381 16.03053 85.04045 16.03053 C 90.5428 16.03053 95.00322 20.49095 95.00322 25.9933 Z M 85.04045 25.9933 "/>
<text xml:space="preserve" transform="matrix(1 0 -0 1 0 193.044)" font-size="11.9552" font-family="CMMI12" font-style="italic"><tspan y="-54.536" x="203.85">&#x03f5;</tspan></text>
<text xml:space="preserve" transform="matrix(1 0 -0 1 0 193.044)" font-size="7.9701" font-family="CMMI8" font-style="italic"><tspan y="-52.742" x="208.57701">i</tspan></text>
<path transform="matrix(1,0,0,-1,122.865,162.824)" d="M 9.96277 119.5379 C 9.96277 125.04027 5.50235 129.50067 0 129.50067 C -5.50235 129.50067 -9.96277 125.04027 -9.96277 119.5379 C -9.96277 114.03555 -5.50235 109.57513 0 109.57513 C 5.50235 109.57513 9.96277 114.03555 9.96277 119.5379 Z M 0 119.5379 " fill="#ffffff"/>
<path transform="matrix(1,0,0,-1,122.865,162.824)" stroke-width=".3985" stroke-linecap="butt" stroke-miterlimit="10" stroke-linejoin="miter" fill="none" stroke="#000000" d="M 9.96277 119.5379 C 9.96277 125.04027 5.50235 129.50067 0 129.50067 C -5.50235 129.50067 -9.96277 125.04027 -9.96277 119.5379 C -9.96277 114.03555 -5.50235 109.57513 0 109.57513 C 5.50235 109.57513 9.96277 114.03555 9.96277 119.5379 Z M 0 119.5379 "/>
<text xml:space="preserve" transform="matrix(1 0 -0 1 0 193.044)" font-size="11.9552" font-family="CMMI12" font-style="italic"><tspan y="-147.182" x="119.655">&#x03c4;</tspan></text>
<path transform="matrix(1,0,0,-1,122.865,162.824)" d="M -3.909 138.4033 L 3.90901 138.4033 L 3.90901 145.21117 L -3.909 145.21117 Z "/>
<text xml:space="preserve" transform="matrix(1 0 -0 1 0 193.044)" font-size="9.9626" font-family="CMR10"><tspan y="-168.621" x="118.956">G</tspan></text>
<text xml:space="preserve" transform="matrix(1 0 -0 1 0 193.044)" font-size="9.9626" font-family="CMR10"><tspan y="-168.621" x="130.007 137.82765 142.80895 151.10779 159.40663">Gamma</tspan></text>
<text xml:space="preserve" transform="matrix(1 0 -0 1 0 193.044)" font-size="11.9552" font-family="CMMI12" font-style="italic"><tspan y="-181.753" x="103.253">a</tspan></text>
<text xml:space="preserve" transform="matrix(1 0 -0 1 0 193.044)" font-size="7.9701" font-family="CMR8"><tspan y="-179.96" x="109.397998">0</tspan></text>
<text xml:space="preserve" transform="matrix(1 0 -0 1 0 193.044)" font-size="11.9552" font-family="CMMI12" font-style="italic"><tspan y="-181.753" x="132.183">b</tspan></text>
<text xml:space="preserve" transform="matrix(1 0 -0 1 0 193.044)" font-size="7.9701" font-family="CMR8"><tspan y="-179.96" x="137.16">0</tspan></text>
<path transform="matrix(1,0,0,-1,122.865,162.824)" d="M -75.07768 54.34013 C -75.07768 59.84248 -79.5381 64.3029 -85.04045 64.3029 C -90.5428 64.3029 -95.00322 59.84248 -95.00322 54.34013 C -95.00322 48.83778 -90.5428 44.37737 -85.04045 44.37737 C -79.5381 44.37737 -75.07768 48.83778 -75.07768 54.34013 Z M -85.04045 54.34013 " fill="#ffffff"/>
<path transform="matrix(1,0,0,-1,122.865,162.824)" stroke-width=".3985" stroke-linecap="butt" stroke-miterlimit="10" stroke-linejoin="miter" fill="none" stroke="#000000" d="M -75.07768 54.34013 C -75.07768 59.84248 -79.5381 64.3029 -85.04045 64.3029 C -90.5428 64.3029 -95.00322 59.84248 -95.00322 54.34013 C -95.00322 48.83778 -90.5428 44.37737 -85.04045 44.37737 C -79.5381 44.37737 -75.07768 48.83778 -75.07768 54.34013 Z M -85.04045 54.34013 "/>
<text xml:space="preserve" transform="matrix(1 0 -0 1 -.0000038146974 193.044)" font-size="11.9552" font-family="CMMI12" font-style="italic"><tspan y="-81.985" x="34.064">&#x03b1;</tspan></text>
<path transform="matrix(1,0,0,-1,122.865,162.824)" d="M -88.77649 73.20554 L -81.30441 73.20554 L -81.30441 80.013408 L -88.77649 80.013408 Z "/>
<text xml:space="preserve" transform="matrix(1 0 -0 1 -.0000038146974 193.044)" font-size="9.9626" font-family="CMR10"><tspan y="-103.424" x="34.089">N</tspan></text>
<text xml:space="preserve" transform="matrix(1 0 -0 1 0 193.044)" font-size="9.9626" font-family="CMR10"><tspan y="-103.369" x="44.795 52.26695 57.24825 61.153589 69.45243 74.43373">Normal</tspan></text>
<text xml:space="preserve" transform="matrix(1 0 -0 1 -.00000166893 193.044)" font-size="11.9552" font-family="CMMI12" font-style="italic"><tspan y="-117.087" x="2.989">&#x00b5;</tspan></text>
<text xml:space="preserve" transform="matrix(1 0 -0 1 -.00000166893 193.044)" font-size="7.9701" font-family="CMMI8" font-style="italic"><tspan y="-115.294" x="10.032001">&#x03b1;</tspan></text>
<text xml:space="preserve" transform="matrix(1 0 -0 1 -.000005722046 193.044)" font-size="11.9552" font-family="CMMI12" font-style="italic"><tspan y="-116.556" x="21.483">r</tspan></text>
<text xml:space="preserve" transform="matrix(1 0 -0 1 -.000005722046 193.044)" font-size="7.9701" font-family="CMR8"><tspan y="-114.763" x="26.758">0</tspan></text>
<path transform="matrix(1,0,0,-1,122.865,162.824)" d="M 9.96277 54.34013 C 9.96277 59.84248 5.50235 64.3029 0 64.3029 C -5.50235 64.3029 -9.96277 59.84248 -9.96277 54.34013 C -9.96277 48.83778 -5.50235 44.37737 0 44.37737 C 5.50235 44.37737 9.96277 48.83778 9.96277 54.34013 Z M 0 54.34013 " fill="#ffffff"/>
<path transform="matrix(1,0,0,-1,122.865,162.824)" stroke-width=".3985" stroke-linecap="butt" stroke-miterlimit="10" stroke-linejoin="miter" fill="none" stroke="#000000" d="M 9.96277 54.34013 C 9.96277 59.84248 5.50235 64.3029 0 64.3029 C -5.50235 64.3029 -9.96277 59.84248 -9.96277 54.34013 C -9.96277 48.83778 -5.50235 44.37737 0 44.37737 C 5.50235 44.37737 9.96277 48.83778 9.96277 54.34013 Z M 0 54.34013 "/>
<text xml:space="preserve" transform="matrix(1 0 -0 1 0 193.044)" font-size="11.9552" font-family="CMMI12" font-style="italic"><tspan y="-81.57" x="119.229">&#x03b2;</tspan></text>
<path transform="matrix(1,0,0,-1,122.865,162.824)" d="M -3.73604 73.20554 L 3.73604 73.20554 L 3.73604 80.013408 L -3.73604 80.013408 Z "/>
<text xml:space="preserve" transform="matrix(1 0 -0 1 0 193.044)" font-size="9.9626" font-family="CMR10"><tspan y="-103.424" x="119.129">N</tspan></text>
<text xml:space="preserve" transform="matrix(1 0 -0 1 0 193.044)" font-size="9.9626" font-family="CMR10"><tspan y="-103.369" x="129.834 137.30596 142.28725 146.19258 154.49143 159.47272">Normal</tspan></text>
<text xml:space="preserve" transform="matrix(1 0 -0 1 -.0000076293949 193.044)" font-size="11.9552" font-family="CMMI12" font-style="italic"><tspan y="-118.106" x="88.167">&#x00b5;</tspan></text>
<text xml:space="preserve" transform="matrix(1 0 -0 1 -.0000076293949 193.044)" font-size="7.9701" font-family="CMMI8" font-style="italic"><tspan y="-116.312007" x="95.21">&#x03b2;</tspan></text>
<text xml:space="preserve" transform="matrix(1 0 -0 1 0 193.044)" font-size="11.9552" font-family="CMMI12" font-style="italic"><tspan y="-116.556" x="106.403">s</tspan></text>
<text xml:space="preserve" transform="matrix(1 0 -0 1 0 193.044)" font-size="7.9701" font-family="CMR8"><tspan y="-114.763" x="111.917">0</tspan></text>
<path transform="matrix(1,0,0,-1,122.865,162.824)" d="M 81.30441 73.20554 L 88.77649 73.20554 L 88.77649 80.013408 L 81.30441 80.013408 Z "/>
<text xml:space="preserve" transform="matrix(1 0 -0 1 0 193.044)" font-size="9.9626" font-family="CMR10"><tspan y="-103.424" x="204.168">N</tspan></text>
<text xml:space="preserve" transform="matrix(1 0 -0 1 0 193.044)" font-size="9.9626" font-family="CMR10"><tspan y="-103.369" x="214.873 222.34496 227.32625 231.23159 239.53043 244.51172">Normal</tspan></text>
<path transform="matrix(1,0,0,-1,122.865,162.824)" stroke-width=".3985" stroke-linecap="butt" stroke-miterlimit="10" stroke-linejoin="miter" fill="none" stroke="#000000" d="M -75.30702 23.01833 L -10.68767 3.26678 "/>
<path transform="matrix(.95782,.29277,.29277,-.95782,112.17733,159.5572)" d="M .797 0 C -.19925 .19925 -1.19551 .59775 -2.39102 1.29512 C -1.19551 .3985 -1.19551 -.3985 -2.39102 -1.29512 C -1.19551 -.59775 -.19925 -.19925 .797 0 Z "/>
<path transform="matrix(.95782,.29277,.29277,-.95782,112.17733,159.5572)" stroke-width=".3985" stroke-linecap="butt" stroke-linejoin="round" fill="none" stroke="#000000" d="M .797 0 C -.19925 .19925 -1.19551 .59775 -2.39102 1.29512 C -1.19551 .3985 -1.19551 -.3985 -2.39102 -1.29512 C -1.19551 -.59775 -.19925 -.19925 .797 0 Z "/>
<path transform="matrix(1,0,0,-1,122.865,162.824)" stroke-width=".3985" stroke-linecap="butt" stroke-miterlimit="10" stroke-linejoin="miter" fill="none" stroke="#000000" d="M -76.44254 48.84605 L -9.44083 6.03288 "/>
<path transform="matrix(.84608,.54068,.54068,-.84608,113.424167,156.7911)" d="M .797 0 C -.19925 .19925 -1.19551 .59775 -2.39102 1.29512 C -1.19551 .3985 -1.19551 -.3985 -2.39102 -1.29512 C -1.19551 -.59775 -.19925 -.19925 .797 0 Z "/>
<path transform="matrix(.84608,.54068,.54068,-.84608,113.424167,156.7911)" stroke-width=".3985" stroke-linecap="butt" stroke-linejoin="round" fill="none" stroke="#000000" d="M .797 0 C -.19925 .19925 -1.19551 .59775 -2.39102 1.29512 C -1.19551 .3985 -1.19551 -.3985 -2.39102 -1.29512 C -1.19551 -.59775 -.19925 -.19925 .797 0 Z "/>
<path transform="matrix(1,0,0,-1,122.865,162.824)" stroke-width=".3985" stroke-linecap="butt" stroke-miterlimit="10" stroke-linejoin="miter" fill="none" stroke="#000000" d="M 0 44.17812 L 0 11.15828 "/>
<path transform="matrix(0,1,1,0,122.865,151.66573)" d="M .797 0 C -.19925 .19925 -1.19551 .59775 -2.39102 1.29512 C -1.19551 .3985 -1.19551 -.3985 -2.39102 -1.29512 C -1.19551 -.59775 -.19925 -.19925 .797 0 Z "/>
<path transform="matrix(0,1,1,0,122.865,151.66573)" stroke-width=".3985" stroke-linecap="butt" stroke-linejoin="round" fill="none" stroke="#000000" d="M .797 0 C -.19925 .19925 -1.19551 .59775 -2.39102 1.29512 C -1.19551 .3985 -1.19551 -.3985 -2.39102 -1.29512 C -1.19551 -.59775 -.19925 -.19925 .797 0 Z "/>
<path transform="matrix(1,0,0,-1,122.865,162.824)" stroke-width=".3985" stroke-linecap="butt" stroke-miterlimit="10" stroke-linejoin="miter" fill="none" stroke="#000000" d="M 75.30702 23.01833 L 10.68767 3.26678 "/>
<path transform="matrix(-.95782,.29277,.29277,.95782,133.55268,159.5572)" d="M .797 0 C -.19925 .19925 -1.19551 .59775 -2.39102 1.29512 C -1.19551 .3985 -1.19551 -.3985 -2.39102 -1.29512 C -1.19551 -.59775 -.19925 -.19925 .797 0 Z "/>
<path transform="matrix(-.95782,.29277,.29277,.95782,133.55268,159.5572)" stroke-width=".3985" stroke-linecap="butt" stroke-linejoin="round" fill="none" stroke="#000000" d="M .797 0 C -.19925 .19925 -1.19551 .59775 -2.39102 1.29512 C -1.19551 .3985 -1.19551 -.3985 -2.39102 -1.29512 C -1.19551 -.59775 -.19925 -.19925 .797 0 Z "/>
<path transform="matrix(1,0,0,-1,122.865,162.824)" stroke-width=".3985" stroke-linecap="butt" stroke-miterlimit="10" stroke-linejoin="miter" fill="none" stroke="#000000" d=""/>
<path transform="matrix(1,0,0,-1,122.865,162.824)" stroke-width=".3985" stroke-linecap="butt" stroke-miterlimit="10" stroke-linejoin="miter" fill="none" stroke="#000000" d="M 9.08914 114.94952 L 81.10516 78.59398 "/>
<path transform="matrix(1,0,0,-1,122.865,162.824)" stroke-width=".3985" stroke-linecap="butt" stroke-miterlimit="10" stroke-linejoin="miter" fill="none" stroke="#000000" d="M 85.04045 73.00627 L 85.04045 37.1516 "/>
<path transform="matrix(0,1,1,0,207.90546,125.67241)" d="M .797 0 C -.19925 .19925 -1.19551 .59775 -2.39102 1.29512 C -1.19551 .3985 -1.19551 -.3985 -2.39102 -1.29512 C -1.19551 -.59775 -.19925 -.19925 .797 0 Z "/>
<path transform="matrix(0,1,1,0,207.90546,125.67241)" stroke-width=".3985" stroke-linecap="butt" stroke-linejoin="round" fill="none" stroke="#000000" d="M .797 0 C -.19925 .19925 -1.19551 .59775 -2.39102 1.29512 C -1.19551 .3985 -1.19551 -.3985 -2.39102 -1.29512 C -1.19551 -.59775 -.19925 -.19925 .797 0 Z "/>
<path transform="matrix(1,0,0,-1,122.865,162.824)" stroke-width=".3985" stroke-linecap="butt" stroke-miterlimit="10" stroke-linejoin="miter" fill="none" stroke="#000000" d=""/>
<path transform="matrix(1,0,0,-1,122.865,162.824)" stroke-width=".3985" stroke-linecap="butt" stroke-miterlimit="10" stroke-linejoin="miter" fill="none" stroke="#000000" d="M -9.08914 114.94952 L -81.10516 78.59398 "/>
<path transform="matrix(1,0,0,-1,122.865,162.824)" stroke-width=".3985" stroke-linecap="butt" stroke-miterlimit="10" stroke-linejoin="miter" fill="none" stroke="#000000" d=""/>
<path transform="matrix(1,0,0,-1,122.865,162.824)" stroke-width=".3985" stroke-linecap="butt" stroke-miterlimit="10" stroke-linejoin="miter" fill="none" stroke="#000000" d="M -106.6979 85.52664 L -88.97574 78.22937 "/>
<path transform="matrix(1,0,0,-1,122.865,162.824)" stroke-width=".3985" stroke-linecap="butt" stroke-miterlimit="10" stroke-linejoin="miter" fill="none" stroke="#000000" d=""/>
<path transform="matrix(1,0,0,-1,122.865,162.824)" stroke-width=".3985" stroke-linecap="butt" stroke-miterlimit="10" stroke-linejoin="miter" fill="none" stroke="#000000" d="M -92.73091 84.34483 L -88.62209 80.21265 "/>
<path transform="matrix(1,0,0,-1,122.865,162.824)" stroke-width=".3985" stroke-linecap="butt" stroke-miterlimit="10" stroke-linejoin="miter" fill="none" stroke="#000000" d="M -85.04045 73.00627 L -85.04045 65.49841 "/>
<path transform="matrix(0,1,1,0,37.824548,97.32559)" d="M .797 0 C -.19925 .19925 -1.19551 .59775 -2.39102 1.29512 C -1.19551 .3985 -1.19551 -.3985 -2.39102 -1.29512 C -1.19551 -.59775 -.19925 -.19925 .797 0 Z "/>
<path transform="matrix(0,1,1,0,37.824548,97.32559)" stroke-width=".3985" stroke-linecap="butt" stroke-linejoin="round" fill="none" stroke="#000000" d="M .797 0 C -.19925 .19925 -1.19551 .59775 -2.39102 1.29512 C -1.19551 .3985 -1.19551 -.3985 -2.39102 -1.29512 C -1.19551 -.59775 -.19925 -.19925 .797 0 Z "/>
<path transform="matrix(1,0,0,-1,122.865,162.824)" stroke-width=".3985" stroke-linecap="butt" stroke-miterlimit="10" stroke-linejoin="miter" fill="none" stroke="#000000" d=""/>
<path transform="matrix(1,0,0,-1,122.865,162.824)" stroke-width=".3985" stroke-linecap="butt" stroke-miterlimit="10" stroke-linejoin="miter" fill="none" stroke="#000000" d="M 0 109.37589 L 0 80.21265 "/>
<path transform="matrix(1,0,0,-1,122.865,162.824)" stroke-width=".3985" stroke-linecap="butt" stroke-miterlimit="10" stroke-linejoin="miter" fill="none" stroke="#000000" d=""/>
<path transform="matrix(1,0,0,-1,122.865,162.824)" stroke-width=".3985" stroke-linecap="butt" stroke-miterlimit="10" stroke-linejoin="miter" fill="none" stroke="#000000" d="M -21.7963 85.97537 L -3.93529 78.30011 "/>
<path transform="matrix(1,0,0,-1,122.865,162.824)" stroke-width=".3985" stroke-linecap="butt" stroke-miterlimit="10" stroke-linejoin="miter" fill="none" stroke="#000000" d=""/>
<path transform="matrix(1,0,0,-1,122.865,162.824)" stroke-width=".3985" stroke-linecap="butt" stroke-miterlimit="10" stroke-linejoin="miter" fill="none" stroke="#000000" d="M -7.69044 84.34483 L -3.58162 80.21265 "/>
<path transform="matrix(1,0,0,-1,122.865,162.824)" stroke-width=".3985" stroke-linecap="butt" stroke-miterlimit="10" stroke-linejoin="miter" fill="none" stroke="#000000" d="M 0 73.00627 L 0 65.49841 "/>
<path transform="matrix(0,1,1,0,122.865,97.32559)" d="M .797 0 C -.19925 .19925 -1.19551 .59775 -2.39102 1.29512 C -1.19551 .3985 -1.19551 -.3985 -2.39102 -1.29512 C -1.19551 -.59775 -.19925 -.19925 .797 0 Z "/>
<path transform="matrix(0,1,1,0,122.865,97.32559)" stroke-width=".3985" stroke-linecap="butt" stroke-linejoin="round" fill="none" stroke="#000000" d="M .797 0 C -.19925 .19925 -1.19551 .59775 -2.39102 1.29512 C -1.19551 .3985 -1.19551 -.3985 -2.39102 -1.29512 C -1.19551 -.59775 -.19925 -.19925 .797 0 Z "/>
<path transform="matrix(1,0,0,-1,122.865,162.824)" stroke-width=".3985" stroke-linecap="butt" stroke-miterlimit="10" stroke-linejoin="miter" fill="none" stroke="#000000" d=""/>
<path transform="matrix(1,0,0,-1,122.865,162.824)" stroke-width=".3985" stroke-linecap="butt" stroke-miterlimit="10" stroke-linejoin="miter" fill="none" stroke="#000000" d="M -9.61337 149.54262 L -4.10825 145.11254 "/>
<path transform="matrix(1,0,0,-1,122.865,162.824)" stroke-width=".3985" stroke-linecap="butt" stroke-miterlimit="10" stroke-linejoin="miter" fill="none" stroke="#000000" d=""/>
<path transform="matrix(1,0,0,-1,122.865,162.824)" stroke-width=".3985" stroke-linecap="butt" stroke-miterlimit="10" stroke-linejoin="miter" fill="none" stroke="#000000" d="M 9.11937 150.16063 L 3.93349 145.41043 "/>
<path transform="matrix(1,0,0,-1,122.865,162.824)" stroke-width=".3985" stroke-linecap="butt" stroke-miterlimit="10" stroke-linejoin="miter" fill="none" stroke="#000000" d="M 0 138.20406 L 0 130.69618 "/>
<path transform="matrix(0,1,1,0,122.865,32.127824)" d="M .797 0 C -.19925 .19925 -1.19551 .59775 -2.39102 1.29512 C -1.19551 .3985 -1.19551 -.3985 -2.39102 -1.29512 C -1.19551 -.59775 -.19925 -.19925 .797 0 Z "/>
<path transform="matrix(0,1,1,0,122.865,32.127824)" stroke-width=".3985" stroke-linecap="butt" stroke-linejoin="round" fill="none" stroke="#000000" d="M .797 0 C -.19925 .19925 -1.19551 .59775 -2.39102 1.29512 C -1.19551 .3985 -1.19551 -.3985 -2.39102 -1.29512 C -1.19551 -.59775 -.19925 -.19925 .797 0 Z "/>
<text xml:space="preserve" transform="matrix(1 0 -0 1 0 193.044)" font-size="7.9701" font-family="CMMI8" font-style="italic"><tspan y="-8.7" x="172.407">i</tspan></text>
<text xml:space="preserve" transform="matrix(1 0 -0 1 0 193.044)" font-size="7.9701" font-family="CMSY8" font-style="italic"><tspan y="-8.7" x="177.643 185.63703">&#x2208;{</tspan></text>
<text xml:space="preserve" transform="matrix(1 0 -0 1 0 193.044)" font-size="7.9701" font-family="CMR8"><tspan y="-8.7" x="189.875">1</tspan></text>
<text xml:space="preserve" transform="matrix(1 0 -0 1 0 193.044)" font-size="7.9701" font-family="CMMI8" font-style="italic"><tspan y="-8.7" x="194.109 197.87088 200.22206 202.57324 204.92443 208.68631">,...,n</tspan></text>
<text xml:space="preserve" transform="matrix(1 0 -0 1 0 193.044)" font-size="7.9701" font-family="CMSY8" font-style="italic"><tspan y="-8.7" x="213.832">}</tspan></text>
<path transform="matrix(1,0,0,-1,122.865,162.824)" stroke-width=".3985" stroke-linecap="butt" stroke-miterlimit="10" stroke-linejoin="miter" fill="none" stroke="#000000" d="M 94.73718 39.67516 L -94.73718 39.67516 C -96.93813 39.67516 -98.72229 37.89099 -98.72229 35.69005 L -98.72229 -23.04683 C -98.72229 -25.24777 -96.93813 -27.03194 -94.73718 -27.03194 L 94.73718 -27.03194 C 96.93813 -27.03194 98.72229 -25.24777 98.72229 -23.04683 L 98.72229 35.69005 C 98.72229 37.89099 96.93813 39.67516 94.73718 39.67516 Z M -98.72229 -27.03194 "/>
</g>
</svg>
