<?xml version="1.0" encoding="UTF-8" standalone="no"?>
<!DOCTYPE svg PUBLIC "-//W3C//DTD SVG 1.1//EN" "http://www.w3.org/Graphics/SVG/1.1/DTD/svg11.dtd">
<svg xmlns="http://www.w3.org/2000/svg" xmlns:xlink="http://www.w3.org/1999/xlink" version="1.1" width="177.59pt" height="144.855pt" viewBox="0 0 177.59 144.855">
<g enable-background="new">
<path transform="matrix(1,0,0,-1,87.719,114.634998)" d="M 9.96277 0 C 9.96277 5.50235 5.50235 9.96277 0 9.96277 C -5.50235 9.96277 -9.96277 5.50235 -9.96277 0 C -9.96277 -5.50235 -5.50235 -9.96277 0 -9.96277 C 5.50235 -9.96277 9.96277 -5.50235 9.96277 0 Z M 0 0 " fill="#e5e5e5"/>
<path transform="matrix(1,0,0,-1,87.719,114.634998)" stroke-width=".3985" stroke-linecap="butt" stroke-miterlimit="10" stroke-linejoin="miter" fill="none" stroke="#000000" d="M 9.96277 0 C 9.96277 5.50235 5.50235 9.96277 0 9.96277 C -5.50235 9.96277 -9.96277 5.50235 -9.96277 0 C -9.96277 -5.50235 -5.50235 -9.96277 0 -9.96277 C 5.50235 -9.96277 9.96277 -5.50235 9.96277 0 Z M 0 0 "/>
<text xml:space="preserve" transform="matrix(1 0 -0 1 0 144.855)" font-size="11.9552" font-family="CMMI12" font-style="italic"><tspan y="-28.808" x="83.174">y</tspan></text>
<text xml:space="preserve" transform="matrix(1 0 -0 1 0 144.855)" font-size="7.9701" font-family="CMMI8" font-style="italic"><tspan y="-27.015002" x="88.882">i</tspan></text>
<path transform="matrix(1,0,0,-1,87.719,114.634998)" d="M -3.73604 24.53467 L 3.73604 24.53467 L 3.73604 31.34253 L -3.73604 31.34253 Z "/>
<text xml:space="preserve" transform="matrix(1 0 -0 1 0 144.855)" font-size="9.9626" font-family="CMR10"><tspan y="-54.754" x="83.983">N</tspan></text>
<text xml:space="preserve" transform="matrix(1 0 -0 1 0 144.855)" font-size="9.9626" font-family="CMR10"><tspan y="-54.699" x="94.688 102.15996 107.14126 111.0466 119.34544 124.326747">Normal</tspan></text>
<path transform="matrix(1,0,0,-1,87.719,114.634998)" d="M 55.31786 55.75755 C 55.31786 61.2599 50.85744 65.72032 45.35509 65.72032 C 39.85272 65.72032 35.39232 61.2599 35.39232 55.75755 C 35.39232 50.25519 39.85272 45.79478 45.35509 45.79478 C 50.85744 45.79478 55.31786 50.25519 55.31786 55.75755 Z M 45.35509 55.75755 " fill="#ffffff"/>
<path transform="matrix(1,0,0,-1,87.719,114.634998)" stroke-width=".3985" stroke-linecap="butt" stroke-miterlimit="10" stroke-linejoin="miter" fill="none" stroke="#000000" d="M 55.31786 55.75755 C 55.31786 61.2599 50.85744 65.72032 45.35509 65.72032 C 39.85272 65.72032 35.39232 61.2599 35.39232 55.75755 C 35.39232 50.25519 39.85272 45.79478 45.35509 45.79478 C 50.85744 45.79478 55.31786 50.25519 55.31786 55.75755 Z M 45.35509 55.75755 "/>
<text xml:space="preserve" transform="matrix(1 0 -0 1 0 144.855)" font-size="11.9552" font-family="CMMI12" font-style="italic"><tspan y="-83.403" x="129.864">&#x03c4;</tspan></text>
<text xml:space="preserve" transform="matrix(1 0 -0 1 0 144.85498)" font-size="11.9552" font-family="CMMI12" font-style="italic"><tspan y="-133.564" x="107.792">a</tspan></text>
<text xml:space="preserve" transform="matrix(1 0 -0 1 0 144.85498)" font-size="7.9701" font-family="CMR8"><tspan y="-131.771" x="113.937">0</tspan></text>
<text xml:space="preserve" transform="matrix(1 0 -0 1 0 144.85498)" font-size="11.9552" font-family="CMMI12" font-style="italic"><tspan y="-133.564" x="148.061">b</tspan></text>
<text xml:space="preserve" transform="matrix(1 0 -0 1 0 144.85498)" font-size="7.9701" font-family="CMR8"><tspan y="-131.771" x="153.03801">0</tspan></text>
<path transform="matrix(1,0,0,-1,87.719,114.634998)" d="M 41.44608 80.29222 L 49.264089 80.29222 L 49.264089 87.10008 L 41.44608 87.10008 Z "/>
<text xml:space="preserve" transform="matrix(1 0 -0 1 0 144.855)" font-size="9.9626" font-family="CMR10"><tspan y="-110.511" x="129.164">G</tspan></text>
<text xml:space="preserve" transform="matrix(1 0 -0 1 0 144.855)" font-size="9.9626" font-family="CMR10"><tspan y="-110.511" x="140.216 148.03665 153.01795 161.31679 169.61563">Gamma</tspan></text>
<path transform="matrix(1,0,0,-1,87.719,114.634998)" d="M -35.39232 55.75755 C -35.39232 61.2599 -39.85272 65.72032 -45.35509 65.72032 C -50.85744 65.72032 -55.31786 61.2599 -55.31786 55.75755 C -55.31786 50.25519 -50.85744 45.79478 -45.35509 45.79478 C -39.85272 45.79478 -35.39232 50.25519 -35.39232 55.75755 Z M -45.35509 55.75755 " fill="#ffffff"/>
<path transform="matrix(1,0,0,-1,87.719,114.634998)" stroke-width=".3985" stroke-linecap="butt" stroke-miterlimit="10" stroke-linejoin="miter" fill="none" stroke="#000000" d="M -35.39232 55.75755 C -35.39232 61.2599 -39.85272 65.72032 -45.35509 65.72032 C -50.85744 65.72032 -55.31786 61.2599 -55.31786 55.75755 C -55.31786 50.25519 -50.85744 45.79478 -45.35509 45.79478 C -39.85272 45.79478 -35.39232 50.25519 -35.39232 55.75755 Z M -45.35509 55.75755 "/>
<text xml:space="preserve" transform="matrix(1 0 -0 1 .0000038146974 144.855)" font-size="11.9552" font-family="CMMI12" font-style="italic"><tspan y="-84.565" x="38.843">&#x00b5;</tspan></text>
<text xml:space="preserve" transform="matrix(1 0 -0 1 .0000019073487 144.855)" font-size="11.9552" font-family="CMMI12" font-style="italic"><tspan y="-134.095" x="16.634">&#x00b5;</tspan></text>
<text xml:space="preserve" transform="matrix(1 0 -0 1 .0000019073487 144.855)" font-size="7.9701" font-family="CMR8"><tspan y="-132.302" x="23.677002">0</tspan></text>
<text xml:space="preserve" transform="matrix(1 0 -0 1 .0000038146974 144.85498)" font-size="11.9552" font-family="CMMI12" font-style="italic"><tspan y="-133.564" x="57.299">&#x03c4;</tspan></text>
<text xml:space="preserve" transform="matrix(1 0 -0 1 .0000038146974 144.85498)" font-size="7.9701" font-family="CMR8"><tspan y="-131.771" x="62.383">0</tspan></text>
<path transform="matrix(1,0,0,-1,87.719,114.634998)" d="M -49.09113 80.29222 L -41.61905 80.29222 L -41.61905 87.10008 L -49.09113 87.10008 Z "/>
<text xml:space="preserve" transform="matrix(1 0 -0 1 .0000038146974 144.855)" font-size="9.9626" font-family="CMR10"><tspan y="-110.511" x="38.628">N</tspan></text>
<text xml:space="preserve" transform="matrix(1 0 -0 1 -.00000166893 144.855)" font-size="9.9626" font-family="CMR10"><tspan y="-110.456" x="2.989 10.460951 15.442251 19.347592 27.646439 32.62774">Normal</tspan></text>
<path transform="matrix(1,0,0,-1,87.719,114.634998)" stroke-width=".3985" stroke-linecap="butt" stroke-miterlimit="10" stroke-linejoin="miter" fill="none" stroke="#000000" d="M 35.62164 58.75548 L -40.46555 82.1916 "/>
<path transform="matrix(-.95782,-.295,-.295,.95782,47.253454,32.443399)" d="M .797 0 C -.19925 .19925 -1.19551 .59775 -2.39102 1.29512 C -1.19551 .3985 -1.19551 -.3985 -2.39102 -1.29512 C -1.19551 -.59775 -.19925 -.19925 .797 0 Z "/>
<path transform="matrix(-.95782,-.295,-.295,.95782,47.253454,32.443399)" stroke-width=".3985" stroke-linecap="butt" stroke-linejoin="round" fill="none" stroke="#000000" d="M .797 0 C -.19925 .19925 -1.19551 .59775 -2.39102 1.29512 C -1.19551 .3985 -1.19551 -.3985 -2.39102 -1.29512 C -1.19551 -.59775 -.19925 -.19925 .797 0 Z "/>
<path transform="matrix(1,0,0,-1,87.719,114.634998)" stroke-width=".3985" stroke-linecap="butt" stroke-miterlimit="10" stroke-linejoin="miter" fill="none" stroke="#000000" d=""/>
<path transform="matrix(1,0,0,-1,87.719,114.634998)" stroke-width=".3985" stroke-linecap="butt" stroke-miterlimit="10" stroke-linejoin="miter" fill="none" stroke="#000000" d="M 28.92587 101.35309 L 42.0032 87.29935 "/>
<path transform="matrix(1,0,0,-1,87.719,114.634998)" stroke-width=".3985" stroke-linecap="butt" stroke-miterlimit="10" stroke-linejoin="miter" fill="none" stroke="#000000" d=""/>
<path transform="matrix(1,0,0,-1,87.719,114.634998)" stroke-width=".3985" stroke-linecap="butt" stroke-miterlimit="10" stroke-linejoin="miter" fill="none" stroke="#000000" d="M 60.65306 101.35309 L 48.47586 87.29935 "/>
<path transform="matrix(1,0,0,-1,87.719,114.634998)" stroke-width=".3985" stroke-linecap="butt" stroke-miterlimit="10" stroke-linejoin="miter" fill="none" stroke="#000000" d="M 45.35509 80.09297 L 45.35509 66.91583 "/>
<path transform="matrix(0,1,1,0,133.0741,47.719163)" d="M .797 0 C -.19925 .19925 -1.19551 .59775 -2.39102 1.29512 C -1.19551 .3985 -1.19551 -.3985 -2.39102 -1.29512 C -1.19551 -.59775 -.19925 -.19925 .797 0 Z "/>
<path transform="matrix(0,1,1,0,133.0741,47.719163)" stroke-width=".3985" stroke-linecap="butt" stroke-linejoin="round" fill="none" stroke="#000000" d="M .797 0 C -.19925 .19925 -1.19551 .59775 -2.39102 1.29512 C -1.19551 .3985 -1.19551 -.3985 -2.39102 -1.29512 C -1.19551 -.59775 -.19925 -.19925 .797 0 Z "/>
<path transform="matrix(1,0,0,-1,87.719,114.634998)" stroke-width=".3985" stroke-linecap="butt" stroke-miterlimit="10" stroke-linejoin="miter" fill="none" stroke="#000000" d=""/>
<path transform="matrix(1,0,0,-1,87.719,114.634998)" stroke-width=".3985" stroke-linecap="butt" stroke-miterlimit="10" stroke-linejoin="miter" fill="none" stroke="#000000" d="M -61.58171 101.35309 L -48.66533 87.29935 "/>
<path transform="matrix(1,0,0,-1,87.719,114.634998)" stroke-width=".3985" stroke-linecap="butt" stroke-miterlimit="10" stroke-linejoin="miter" fill="none" stroke="#000000" d=""/>
<path transform="matrix(1,0,0,-1,87.719,114.634998)" stroke-width=".3985" stroke-linecap="butt" stroke-miterlimit="10" stroke-linejoin="miter" fill="none" stroke="#000000" d="M -28.92587 101.35309 L -42.0032 87.29935 "/>
<path transform="matrix(1,0,0,-1,87.719,114.634998)" stroke-width=".3985" stroke-linecap="butt" stroke-miterlimit="10" stroke-linejoin="miter" fill="none" stroke="#000000" d="M -45.35509 80.09297 L -45.35509 66.91583 "/>
<path transform="matrix(0,1,1,0,42.36391,47.719163)" d="M .797 0 C -.19925 .19925 -1.19551 .59775 -2.39102 1.29512 C -1.19551 .3985 -1.19551 -.3985 -2.39102 -1.29512 C -1.19551 -.59775 -.19925 -.19925 .797 0 Z "/>
<path transform="matrix(0,1,1,0,42.36391,47.719163)" stroke-width=".3985" stroke-linecap="butt" stroke-linejoin="round" fill="none" stroke="#000000" d="M .797 0 C -.19925 .19925 -1.19551 .59775 -2.39102 1.29512 C -1.19551 .3985 -1.19551 -.3985 -2.39102 -1.29512 C -1.19551 -.59775 -.19925 -.19925 .797 0 Z "/>
<path transform="matrix(1,0,0,-1,87.719,114.634998)" stroke-width=".3985" stroke-linecap="butt" stroke-miterlimit="10" stroke-linejoin="miter" fill="none" stroke="#000000" d=""/>
<path transform="matrix(1,0,0,-1,87.719,114.634998)" stroke-width=".3985" stroke-linecap="butt" stroke-miterlimit="10" stroke-linejoin="miter" fill="none" stroke="#000000" d="M -36.67978 50.4359 L -3.93529 30.35136 "/>
<path transform="matrix(1,0,0,-1,87.719,114.634998)" stroke-width=".3985" stroke-linecap="butt" stroke-miterlimit="10" stroke-linejoin="miter" fill="none" stroke="#000000" d=""/>
<path transform="matrix(1,0,0,-1,87.719,114.634998)" stroke-width=".3985" stroke-linecap="butt" stroke-miterlimit="10" stroke-linejoin="miter" fill="none" stroke="#000000" d="M 36.67978 50.4359 L 3.93529 30.35136 "/>
<path transform="matrix(1,0,0,-1,87.719,114.634998)" stroke-width=".3985" stroke-linecap="butt" stroke-miterlimit="10" stroke-linejoin="miter" fill="none" stroke="#000000" d="M 0 24.3354 L 0 11.15828 "/>
<path transform="matrix(0,1,1,0,87.719,103.476718)" d="M .797 0 C -.19925 .19925 -1.19551 .59775 -2.39102 1.29512 C -1.19551 .3985 -1.19551 -.3985 -2.39102 -1.29512 C -1.19551 -.59775 -.19925 -.19925 .797 0 Z "/>
<path transform="matrix(0,1,1,0,87.719,103.476718)" stroke-width=".3985" stroke-linecap="butt" stroke-linejoin="round" fill="none" stroke="#000000" d="M .797 0 C -.19925 .19925 -1.19551 .59775 -2.39102 1.29512 C -1.19551 .3985 -1.19551 -.3985 -2.39102 -1.29512 C -1.19551 -.59775 -.19925 -.19925 .797 0 Z "/>
<text xml:space="preserve" transform="matrix(1 0 -0 1 0 144.855)" font-size="7.9701" font-family="CMMI8" font-style="italic"><tspan y="-8.7" x="52.222">i</tspan></text>
<text xml:space="preserve" transform="matrix(1 0 -0 1 0 144.855)" font-size="7.9701" font-family="CMSY8" font-style="italic"><tspan y="-8.7" x="57.458 65.45201">&#x2208;{</tspan></text>
<text xml:space="preserve" transform="matrix(1 0 -0 1 0 144.855)" font-size="7.9701" font-family="CMR8"><tspan y="-8.7" x="69.69">1</tspan></text>
<text xml:space="preserve" transform="matrix(1 0 -0 1 0 144.855)" font-size="7.9701" font-family="CMMI8" font-style="italic"><tspan y="-8.7" x="73.924 77.68589 80.03707 82.38825 84.73943 88.50132">,...,n</tspan></text>
<text xml:space="preserve" transform="matrix(1 0 -0 1 0 144.855)" font-size="7.9701" font-family="CMSY8" font-style="italic"><tspan y="-8.7" x="93.647">}</tspan></text>
<path transform="matrix(1,0,0,-1,87.719,114.634998)" stroke-width=".3985" stroke-linecap="butt" stroke-miterlimit="10" stroke-linejoin="miter" fill="none" stroke="#000000" d="M 9.69673 13.68184 L -35.0318 13.68184 C -37.23274 13.68184 -39.0169 11.89767 -39.0169 9.69673 L -39.0169 -23.04683 C -39.0169 -25.24777 -37.23274 -27.03194 -35.0318 -27.03194 L 9.69673 -27.03194 C 11.89767 -27.03194 13.68184 -25.24777 13.68184 -23.04683 L 13.68184 9.69673 C 13.68184 11.89767 11.89767 13.68184 9.69673 13.68184 Z M -39.0169 -27.03194 "/>
</g>
</svg>
